<svg width="61" height="44" viewBox="0 0 61 44" fill="none" xmlns="http://www.w3.org/2000/svg">
<path d="M46.8629 26.4529C47.5299 26.4529 48.17 26.353 48.8071 26.2619C48.6007 26.9438 48.3884 27.6374 48.0474 28.2605C47.7064 29.1658 47.174 29.9506 46.6446 30.7412C46.2019 31.5965 45.4212 32.1756 44.8469 32.9074C44.2457 33.6187 43.4261 34.0919 42.7771 34.6827C42.14 35.2999 41.3054 35.6086 40.6414 36.0436C39.9475 36.4345 39.3433 36.8665 38.6972 37.0723L37.085 37.7248L35.6672 38.3038L37.1179 44L38.9036 43.5768C39.4749 43.4357 40.1718 43.2711 40.9645 43.0741C41.7751 42.9272 42.6395 42.5245 43.6026 42.1571C44.5538 41.7397 45.6545 41.4576 46.6775 40.7874C47.7064 40.1467 48.8939 39.6118 49.9407 38.7535C50.9547 37.8688 52.1781 37.1017 53.0814 35.976C54.0685 34.9237 55.0436 33.8186 55.8003 32.5606C56.6767 31.3614 57.2719 30.0446 57.9001 28.7426C58.4684 27.4405 58.926 26.109 59.2999 24.8158C60.0088 22.2234 60.3258 19.7603 60.4485 17.6529C60.5502 15.5426 60.4903 13.7878 60.3647 12.5181C60.3199 11.9185 60.2361 11.3365 60.1763 10.9339L60.1015 10.4401L60.0237 10.4577C59.4917 8.01573 58.2671 5.77164 56.4914 3.98505C54.7157 2.19844 52.4615 0.942337 49.9897 0.362041C47.5178 -0.218258 44.9293 -0.0990448 42.5236 0.705898C40.1178 1.51084 37.9931 2.96862 36.3952 4.91059C34.7974 6.85257 33.7917 9.19938 33.4944 11.6796C33.1972 14.1597 33.6206 16.6719 34.7157 18.9255C35.8107 21.1791 37.5327 23.082 39.6823 24.4141C41.832 25.7462 44.3215 26.4531 46.8629 26.4529ZM13.9608 26.4529C14.6279 26.4529 15.268 26.353 15.9051 26.2619C15.6987 26.9438 15.4863 27.6374 15.1453 28.2605C14.8043 29.1658 14.2719 29.9506 13.7425 30.7412C13.2998 31.5965 12.5191 32.1756 11.9448 32.9074C11.3436 33.6187 10.5241 34.0919 9.875 34.6827C9.2379 35.2999 8.40339 35.6086 7.73936 36.0436C7.04543 36.4345 6.44122 36.8665 5.79515 37.0723L4.18295 37.7248L2.76517 38.3038L4.21585 44L6.00153 43.5768C6.57283 43.4357 7.26976 43.2711 8.0624 43.0741C8.87298 42.9272 9.73741 42.5245 10.7005 42.1571C11.6487 41.7368 12.7524 41.4576 13.7754 40.7845C14.8043 40.1438 15.9918 39.6088 17.0387 38.7506C18.0527 37.8659 19.276 37.0987 20.1793 35.976C21.1664 34.9237 22.1415 33.8186 22.8982 32.5606C23.7746 31.3614 24.3699 30.0446 24.998 28.7426C25.5663 27.4405 26.0239 26.109 26.3978 24.8158C27.1067 22.2234 27.4238 19.7603 27.5464 17.6529C27.6481 15.5426 27.5883 13.7878 27.4627 12.5181C27.4178 11.9185 27.334 11.3365 27.2742 10.9339L27.1994 10.4401L27.1217 10.4577C26.5897 8.01573 25.365 5.77164 23.5893 3.98505C21.8136 2.19844 19.5595 0.942337 17.0876 0.362041C14.6158 -0.218258 12.0273 -0.0990448 9.62149 0.705898C7.21573 1.51084 5.09103 2.96862 3.49318 4.91059C1.89532 6.85257 0.88961 9.19938 0.592381 11.6796C0.295151 14.1597 0.718548 16.6719 1.8136 18.9255C2.90865 21.1791 4.6306 23.082 6.78026 24.4141C8.92992 25.7462 11.4194 26.4531 13.9608 26.4529Z" fill="#13443E" fill-opacity="0.35"/>
</svg>
