<svg width="34" height="34" viewBox="0 0 34 34" fill="none" xmlns="http://www.w3.org/2000/svg">
<g clip-path="url(#clip0_1048_1923)">
<path d="M17.6063 32.7859C25.9892 32.7859 32.7849 25.9902 32.7849 17.6073C32.7849 9.22439 25.9892 2.42871 17.6063 2.42871C9.22341 2.42871 2.42773 9.22439 2.42773 17.6073C2.42773 25.9902 9.22341 32.7859 17.6063 32.7859Z" fill="#13443E"/>
<path d="M23.4531 23.4899C23.1719 23.3989 22.916 23.3309 22.6714 23.2346C21.493 22.7712 20.6389 21.963 20.1396 20.7963C20.0228 20.5231 19.9536 20.2294 19.8629 19.9451C19.8358 19.8604 19.868 19.8412 19.9498 19.8582C20.632 20.0002 21.2462 20.2867 21.8038 20.7041C22.6805 21.3602 23.1773 22.2527 23.4329 23.2972C23.4446 23.3467 23.4439 23.3992 23.4531 23.4899Z" fill="#13443E"/>
<path d="M14.1437 19.8389C13.8138 21.8096 12.1629 23.2049 10.5488 23.4334C10.6984 22.642 11.022 21.9462 11.5361 21.3383C12.2205 20.5293 13.0938 20.0517 14.1437 19.8389Z" fill="#13443E"/>
<path d="M17.3521 12.8245C17.3521 13.9502 17.3525 15.0758 17.3514 16.2015C17.3514 16.2956 17.3592 16.374 17.4604 16.4207C17.5676 16.47 17.6187 16.3923 17.674 16.337C18.2995 15.7133 18.9253 15.0904 19.5418 14.4581C19.6127 14.3853 19.6486 14.2613 19.6661 14.1552C19.9365 12.5291 20.6915 11.1988 22.0395 10.2225C22.8124 9.66269 23.6642 9.29818 24.6085 9.15439C24.7493 9.13311 24.8919 9.1148 25.0342 9.11144C25.2743 9.10547 25.3882 9.22349 25.387 9.46326C25.3833 10.1527 25.1903 10.7939 24.8975 11.412C24.2743 12.7293 23.3102 13.7081 21.9909 14.3255C21.4409 14.5828 20.8651 14.7733 20.2568 14.8487C20.1844 14.8577 20.1026 14.898 20.0503 14.9496C19.4066 15.583 18.7666 16.2201 18.1303 16.861C18.0911 16.9002 18.0612 17.0029 18.0844 17.0369C18.1213 17.0911 18.2061 17.1419 18.2718 17.1433C18.8047 17.1546 19.3375 17.156 19.8707 17.1564C21.5783 17.1572 23.2859 17.1557 24.9935 17.1557C25.1555 17.1557 25.3187 17.1448 25.433 17.3051C25.5786 17.5094 25.4763 17.7906 25.2291 17.8276C25.1029 17.8466 24.9737 17.8522 24.8456 17.8526C22.7381 17.8548 20.631 17.8552 18.5235 17.8563C18.4249 17.8563 18.326 17.8552 18.2274 17.8627C18.0926 17.8727 18.0493 17.9594 18.1202 18.0763C18.1505 18.126 18.1923 18.17 18.2341 18.2115C18.8162 18.7948 19.4036 19.3734 19.9798 19.9627C20.1407 20.1274 20.3338 20.1816 20.5447 20.2211C22.228 20.5371 23.5626 21.38 24.5017 22.8291C25.0174 23.625 25.287 24.5004 25.3848 25.4359C25.3904 25.4897 25.39 25.5446 25.3874 25.5988C25.3766 25.8188 25.2612 25.9173 25.0405 25.9032C23.778 25.8225 22.6814 25.3329 21.7258 24.525C20.6661 23.6287 19.997 22.4904 19.7109 21.1298C19.7049 21.101 19.6934 21.0712 19.6952 21.0428C19.7143 20.7279 19.5511 20.5162 19.333 20.3082C18.7726 19.7733 18.2315 19.218 17.6804 18.6735C17.6228 18.6167 17.5818 18.5215 17.463 18.5704C17.3435 18.6197 17.3458 18.7138 17.3458 18.8143C17.3465 20.6163 17.3473 22.4179 17.3473 24.2199C17.3473 24.6446 17.3454 25.0688 17.3428 25.4935C17.3424 25.5625 17.3368 25.6316 17.329 25.7C17.3088 25.8763 17.2203 25.9771 17.0717 25.9965C16.8992 26.0193 16.7297 25.9286 16.6826 25.7698C16.6535 25.6723 16.6419 25.5663 16.6419 25.464C16.6404 23.2425 16.6415 21.0211 16.643 18.7997C16.643 18.7082 16.6513 18.6014 16.5422 18.5831C16.481 18.5726 16.391 18.6133 16.3432 18.6604C15.7289 19.2673 15.1203 19.8798 14.509 20.4897C14.3993 20.5995 14.3544 20.7287 14.3287 20.8822C14.1524 21.9391 13.7383 22.8926 13.0602 23.7266C12.1245 24.8772 10.9083 25.5551 9.46733 25.8486C9.30378 25.8819 9.135 25.8957 8.96809 25.9076C8.78848 25.9207 8.60626 25.7851 8.61373 25.6077C8.62531 25.334 8.6619 25.0587 8.71642 24.7898C9.22089 22.3044 11.2249 20.6222 13.4291 20.2241C13.7174 20.1722 13.934 20.0624 14.1353 19.8507C14.4709 19.4977 14.8425 19.1795 15.1924 18.8393C15.4257 18.6122 15.6498 18.3758 15.8705 18.1364C15.9093 18.0942 15.938 18.005 15.9194 17.9586C15.9007 17.912 15.8182 17.8671 15.7611 17.8638C15.5546 17.8511 15.347 17.8552 15.1393 17.8552C13.1357 17.8548 11.132 17.8556 9.12828 17.8544C9.01029 17.8544 8.89117 17.8473 8.77504 17.829C8.61336 17.8033 8.49424 17.6498 8.50022 17.4929C8.50694 17.3163 8.62381 17.187 8.80566 17.174C8.9778 17.1613 9.15069 17.1583 9.3232 17.1579C11.4355 17.1557 13.5475 17.1549 15.6599 17.1523C15.7603 17.1523 15.9018 17.1781 15.9224 17.053C15.9354 16.9738 15.8645 16.8595 15.7991 16.7927C15.2248 16.2082 14.6416 15.633 14.0662 15.0497C13.9403 14.9219 13.8123 14.8491 13.6244 14.8245C12.4542 14.6698 11.443 14.1597 10.5696 13.3784C9.60885 12.5186 8.97407 11.4583 8.69327 10.1949C8.64958 9.99807 8.62157 9.79677 8.59991 9.59621C8.59021 9.50546 8.59693 9.40537 8.62605 9.31984C8.66787 9.19809 8.75376 9.1163 8.90088 9.11369C9.35643 9.1051 9.79182 9.21564 10.2194 9.35047C11.2903 9.68846 12.2231 10.2561 12.9613 11.1095C13.7081 11.973 14.161 12.9799 14.3313 14.11C14.3559 14.2743 14.4164 14.4024 14.5367 14.5205C15.1106 15.084 15.6767 15.6554 16.2457 16.2242C16.2913 16.2694 16.3327 16.3221 16.3861 16.3549C16.4399 16.3882 16.5239 16.4345 16.562 16.414C16.6068 16.3901 16.6371 16.3008 16.6386 16.2392C16.646 15.8594 16.6445 15.4792 16.6445 15.099C16.6453 13.307 16.6449 11.5151 16.6468 9.72319C16.6468 9.58053 16.6565 9.43711 16.6729 9.29557C16.6923 9.12713 16.8297 9.00538 16.9899 9.00015C17.1475 8.99529 17.2954 9.1092 17.3297 9.27278C17.3447 9.34449 17.3465 9.41993 17.3465 9.49351C17.3476 10.6042 17.3473 11.7149 17.3473 12.8256C17.348 12.8245 17.3503 12.8245 17.3521 12.8245ZM24.657 25.2092C24.6462 25.1013 24.6473 25.0393 24.6328 24.9811C24.3296 23.7419 23.7403 22.6831 22.7004 21.9048C22.0391 21.4095 21.3102 21.0697 20.5014 20.9012C20.4043 20.8811 20.3662 20.9038 20.3984 21.0043C20.5063 21.3416 20.588 21.69 20.7266 22.0142C21.3192 23.3983 22.3322 24.3566 23.7295 24.9067C24.02 25.0206 24.3236 25.1017 24.657 25.2092ZM13.6327 14.1231C13.3384 12.8066 12.7705 11.7089 11.7078 10.9004C11.0069 10.3671 10.238 10.0029 9.36353 9.84719C9.35158 10.6651 10.2007 12.1638 11.1353 12.9425C11.8545 13.5416 12.6577 13.9815 13.6327 14.1231ZM24.6708 9.84532C23.7728 9.99135 22.9894 10.3286 22.3091 10.8798C21.2848 11.7097 20.6459 12.7804 20.3853 14.0771C20.7568 14.1492 21.8868 13.6857 22.5966 13.1614C23.7082 12.3405 24.3706 11.2324 24.6708 9.84532ZM13.6129 20.8785C12.3679 21.1309 11.3317 21.6975 10.5203 22.6573C9.91056 23.3789 9.5267 24.2039 9.34934 25.1428C11.2634 24.872 13.2215 23.2164 13.6129 20.8785ZM17.562 17.5094C17.5646 17.2083 17.2984 16.9417 16.9966 16.9443C16.708 16.9465 16.4377 17.2195 16.4392 17.5079C16.4403 17.776 16.7207 18.0565 16.9948 18.0636C17.273 18.0711 17.5594 17.7917 17.562 17.5094Z" fill="white"/>
<path d="M13.3139 13.3187C12.4919 13.199 11.8148 12.8285 11.2087 12.3235C10.4208 11.6672 9.70518 10.4035 9.71494 9.71436C10.4522 9.84563 11.1004 10.1526 11.6913 10.6021C12.587 11.2837 13.0658 12.2089 13.3139 13.3187Z" fill="#13443E"/>
<path d="M24.2557 9.71436C24.0026 10.8836 23.4441 11.8173 22.5069 12.5096C21.9084 12.9516 20.9558 13.3423 20.6426 13.2815C20.8623 12.1888 21.4013 11.2862 22.2645 10.5864C22.8381 10.1217 23.4986 9.83745 24.2557 9.71436Z" fill="#13443E"/>
<path d="M17.001 17.4776C17.2648 17.4776 17.4786 17.2638 17.4786 17C17.4786 16.7363 17.2648 16.5225 17.001 16.5225C16.7373 16.5225 16.5234 16.7363 16.5234 17C16.5234 17.2638 16.7373 17.4776 17.001 17.4776Z" fill="#13443E"/>
</g>
<defs>
<clipPath id="clip0_1048_1923">
<rect width="34" height="34" fill="white"/>
</clipPath>
</defs>
</svg>
