<svg width="50" height="50" viewBox="0 0 50 50" fill="none" xmlns="http://www.w3.org/2000/svg">
<g clip-path="url(#clip0_5031_1564)">
<path d="M1.07221 24.7013C1.07104 28.9022 2.17701 33.0042 4.27999 36.6197L0.871094 48.9728L13.6085 45.6581C17.1315 47.5616 21.0787 48.559 25.0899 48.5592H25.1005C38.3422 48.5592 49.1213 37.8648 49.127 24.7201C49.1295 18.3505 46.6325 12.361 42.0958 7.85475C37.5598 3.34894 31.5272 0.866188 25.0995 0.863281C11.8562 0.863281 1.07788 11.5571 1.07241 24.7013" fill="url(#paint0_linear_5031_1564)"/>
<path d="M0.216744 24.693C0.215377 29.0452 1.36098 33.2938 3.53895 37.0388L0.0078125 49.8347L13.2019 46.4012C16.8373 48.3684 20.9304 49.4056 25.0954 49.4072H25.1061C38.823 49.4072 49.9893 38.3281 49.9951 24.7128C49.9975 18.1143 47.4106 11.9095 42.7118 7.24186C38.0124 2.57481 31.764 0.00271318 25.1061 0C11.387 0 0.222211 11.0775 0.216744 24.693ZM8.07412 36.3938L7.58148 35.6176C5.51052 32.3494 4.41744 28.5727 4.419 24.6946C4.42349 13.3777 13.7032 4.17054 25.1139 4.17054C30.6399 4.17287 35.8331 6.31085 39.7391 10.1899C43.645 14.0694 45.7942 19.2264 45.7929 24.7112C45.7878 36.0281 36.5079 45.2364 25.1061 45.2364H25.0979C21.3854 45.2345 17.7443 44.245 14.569 42.375L13.8133 41.9302L5.98364 43.9676L8.07412 36.3936V36.3938Z" fill="url(#paint1_linear_5031_1564)"/>
<path d="M18.8831 14.3698C18.4172 13.3421 17.9269 13.3213 17.4839 13.3033C17.1211 13.2878 16.7063 13.289 16.292 13.289C15.8773 13.289 15.2034 13.4438 14.6338 14.0611C14.0637 14.6789 12.457 16.1719 12.457 19.2085C12.457 22.2454 14.6856 25.18 14.9962 25.5923C15.3073 26.0037 19.2985 32.4347 25.6195 34.9087C30.8729 36.9647 31.9419 36.5558 33.0821 36.4527C34.2224 36.35 36.7616 34.9601 37.2796 33.5188C37.7981 32.0777 37.7981 30.8424 37.6426 30.5843C37.4872 30.3271 37.0725 30.1727 36.4505 29.8642C35.8284 29.5554 32.771 28.0622 32.201 27.8562C31.6309 27.6504 31.2163 27.5477 30.8016 28.1657C30.3869 28.7828 29.1959 30.1727 28.833 30.5843C28.4703 30.9969 28.1074 31.0483 27.4856 30.7395C26.8633 30.4299 24.8605 29.7789 22.4844 27.6764C20.6356 26.0403 19.3875 24.02 19.0247 23.4019C18.6619 22.7849 18.9858 22.4504 19.2977 22.1428C19.5771 21.8663 19.9198 21.4221 20.231 21.0618C20.5411 20.7014 20.6446 20.4442 20.852 20.0326C21.0595 19.6205 20.9557 19.2601 20.8004 18.9514C20.6446 18.6426 19.4361 15.5901 18.8831 14.3698Z" fill="white"/>
</g>
<defs>
<linearGradient id="paint0_linear_5031_1564" x1="2413.67" y1="4811.81" x2="2413.67" y2="0.863281" gradientUnits="userSpaceOnUse">
<stop stop-color="#1FAF38"/>
<stop offset="1" stop-color="#60D669"/>
</linearGradient>
<linearGradient id="paint1_linear_5031_1564" x1="2499.37" y1="4983.47" x2="2499.37" y2="0" gradientUnits="userSpaceOnUse">
<stop stop-color="#F9F9F9"/>
<stop offset="1" stop-color="white"/>
</linearGradient>
<clipPath id="clip0_5031_1564">
<rect width="50" height="50" fill="white"/>
</clipPath>
</defs>
</svg>
